# xmcd
#
# Track frame offsets: 
#        150
#        11352
#        18655
#        30107
#        49279
#        65119
#        73550
#        93739
#        106702
#        117275
#        126281
#        133481
#
# Disc length: 2345 seconds
#
# Revision: 0
# Processed by: cddbd v1.5.2PL0 Copyright (c) Steve Scherf et al.
# Submitted via: ExactAudioCopy v0.95b4
#
DISCID=a709270c
DTITLE=The Dogbreath Brothers - The Early Beers
DYEAR=1900
DGENRE=Alternative
TTITLE0=Angel Of Death
TTITLE1=Basement
TTITLE2=Black-Eyed Suzy
TTITLE3=Hard Hit Song
TTITLE4=Tillsenburg
TTITLE5=Stuff
TTITLE6=Bent, Broke, Busted And Blue
TTITLE7=Diggity-Doo
TTITLE8=Soul Hole
TTITLE9=Look In Your Heart
TTITLE10=Old Grey Bones
TTITLE11=Grampa's Juice
EXTD=
EXTT0=
EXTT1=
EXTT2=
EXTT3=
EXTT4=
EXTT5=
EXTT6=
EXTT7=
EXTT8=
EXTT9=
EXTT10=
EXTT11=
PLAYORDER=
